# Blender v3.6.22 OBJ File: ''
# www.blender.org
mtllib pootah.mtl
o SM_frame_phong17_0_SM_frame_phong17_0.001
v 0.000000 0.894000 -0.050000
v 0.650000 0.894000 -0.050000
v 0.650000 0.000000 -0.050000
v 0.000000 0.000000 -0.050000
v 0.080795 0.068365 -0.006764
v 0.569205 0.068365 -0.006764
v 0.551453 0.083385 -0.006764
v 0.098547 0.083385 -0.006764
v 0.569205 0.825636 -0.006764
v 0.551453 0.810615 -0.006764
v 0.080795 0.825636 -0.006764
v 0.098547 0.810615 -0.006764
v 0.551453 0.083385 -0.012690
v 0.098547 0.083385 -0.005925
v 0.551453 0.810615 -0.012690
v 0.098547 0.810615 -0.012690
v 0.078260 0.066220 0.000000
v 0.571740 0.066220 0.000000
v 0.569205 0.068365 -0.006764
v 0.080795 0.068365 -0.006764
v 0.571740 0.827780 0.000000
v 0.569205 0.825636 -0.006764
v 0.078260 0.827780 0.000000
v 0.080795 0.825636 -0.006764
v 0.065836 0.055707 -0.000674
v 0.584164 0.055707 -0.000674
v 0.584164 0.838293 -0.000674
v 0.065836 0.838293 -0.000674
v 0.055243 0.046744 0.000000
v 0.594757 0.046744 0.000000
v 0.594757 0.847257 0.000000
v 0.055243 0.847257 0.000000
v 0.051391 0.043484 -0.006042
v 0.598609 0.043484 -0.006042
v 0.598609 0.850516 -0.006042
v 0.051391 0.850516 -0.006042
v 0.019249 0.015472 0.000285
v 0.029919 0.025316 -0.000902
v 0.029919 0.868684 -0.000902
v 0.019249 0.878528 0.000285
v 0.630751 0.015472 0.000285
v 0.620080 0.025316 -0.000902
v 0.631180 0.878958 0.000277
v 0.620080 0.868684 -0.000902
v 0.598609 0.043484 -0.006042
v 0.051391 0.043484 -0.006042
v 0.598609 0.850516 -0.006042
v 0.051391 0.850516 -0.006042
v 0.000000 0.894000 -0.004999
v 0.650000 0.894000 -0.004999
v 0.650000 0.894000 -0.050000
v 0.000000 0.894000 -0.050000
v 0.000000 0.000000 -0.050000
v 0.650000 0.000000 -0.050000
v 0.650000 0.000000 -0.004999
v 0.000000 0.000000 -0.004999
v 0.650000 0.000000 -0.004999
v 0.650000 0.000000 -0.050000
v 0.650000 0.894000 -0.050000
v 0.650000 0.894000 -0.004999
v 0.000000 0.000000 -0.050000
v 0.000000 0.000000 -0.004999
v 0.000000 0.894000 -0.004999
v 0.000000 0.894000 -0.050000
v 0.004999 0.004999 0.000074
v 0.645001 0.004999 0.000074
v 0.645001 0.889001 0.000074
v 0.004999 0.889001 0.000074
v 0.000000 0.000000 -0.004999
v 0.001461 0.001461 -0.001439
v 0.001461 0.892539 -0.001439
v 0.000000 0.894000 -0.004999
v 0.001461 0.001461 -0.001439
v 0.001461 0.892539 -0.001439
v 0.001461 0.001461 -0.001439
v 0.648539 0.001461 -0.001439
v 0.001461 0.001461 -0.001439
v 0.000000 0.000000 -0.004999
v 0.650000 0.000000 -0.004999
v 0.648539 0.001461 -0.001439
v 0.000000 0.894000 -0.004999
v 0.001461 0.892539 -0.001439
v 0.648539 0.892539 -0.001440
v 0.650000 0.894000 -0.004999
v 0.001461 0.892539 -0.001439
v 0.648539 0.892539 -0.001440
v 0.648539 0.001461 -0.001439
v 0.648539 0.892539 -0.001440
v 0.648539 0.001461 -0.001439
v 0.650000 0.000000 -0.004999
v 0.650000 0.894000 -0.004999
v 0.648539 0.892539 -0.001440
v 0.000000 0.894000 -0.055042
v 0.650000 0.894000 -0.055042
v 0.650000 0.000000 -0.055042
v 0.000000 0.000000 -0.055042
vt 0.105911 0.935951
vt 0.888192 0.076353
vt 0.889817 0.938744
vt 0.104285 0.073559
vt 0.991589 0.378928
vt 0.997654 0.378950
vt 0.997642 0.372277
vt 0.991577 0.372256
vt 0.104285 0.073559
vt 0.888192 0.076353
vt 0.889817 0.938744
vt 0.105911 0.935951
vt 0.164695 0.873913
vt 0.846877 0.873537
vt 0.816208 0.848957
vt 0.197214 0.849308
vt 0.846227 0.126087
vt 0.815618 0.150692
vt 0.164045 0.126463
vt 0.196624 0.151043
vt 0.816208 0.848957
vt 0.197214 0.849308
vt 0.815618 0.150692
vt 0.196624 0.151043
vt 0.160051 0.877427
vt 0.851257 0.877047
vt 0.846877 0.873537
vt 0.164695 0.873913
vt 0.850598 0.122573
vt 0.846227 0.126087
vt 0.159393 0.122953
vt 0.164045 0.126463
vt 0.137291 0.894647
vt 0.872722 0.894250
vt 0.872021 0.105353
vt 0.136590 0.105750
vt 0.117886 0.909330
vt 0.891023 0.908918
vt 0.890287 0.090670
vt 0.117149 0.091082
vt 0.110829 0.914669
vt 0.897679 0.914252
vt 0.896929 0.085331
vt 0.110079 0.085748
vt 0.051622 0.960555
vt 0.071496 0.944430
vt 0.070674 0.056018
vt 0.050737 0.039907
vt 0.953459 0.960092
vt 0.934774 0.943982
vt 0.953333 0.038741
vt 0.933952 0.055570
vt 0.897679 0.914252
vt 0.110829 0.914669
vt 0.896929 0.085331
vt 0.110079 0.085748
vt 0.857715 0.265225
vt 0.857717 0.278689
vt 0.858801 0.278689
vt 0.858799 0.265225
vt 0.858740 0.278730
vt 0.858758 0.265318
vt 0.857829 0.265317
vt 0.857812 0.278729
vt 0.860057 0.265347
vt 0.859027 0.265354
vt 0.859016 0.278799
vt 0.860046 0.278792
vt 0.858836 0.265216
vt 0.857815 0.265214
vt 0.857776 0.278720
vt 0.858797 0.278721
vt 0.025758 0.978272
vt 0.977893 0.977770
vt 0.976987 0.021716
vt 0.024847 0.022230
vt 0.015618 0.981847
vt 0.016687 0.985900
vt 0.015763 0.014589
vt 0.014705 0.018645
vt 0.016687 0.985900
vt 0.015763 0.014589
vt 0.016687 0.985900
vt 0.986466 0.985410
vt 0.016687 0.985900
vt 0.022229 0.986821
vt 0.980923 0.986336
vt 0.986466 0.985410
vt 0.021306 0.013664
vt 0.015763 0.014589
vt 0.985542 0.014100
vt 0.980000 0.013179
vt 0.015763 0.014589
vt 0.985542 0.014100
vt 0.986466 0.985410
vt 0.985542 0.014100
vt 0.986466 0.985410
vt 0.987524 0.981355
vt 0.986611 0.018154
vt 0.985542 0.014100
vn 0.0000 0.0000 1.0000
vn 0.0000 0.0000 -1.0000
vn 0.0000 -1.0000 0.0000
vn 1.0000 0.0000 0.0000
vn -1.0000 0.0000 0.0000
vn 0.0000 1.0000 0.0000
vn -0.1419 0.0379 0.9892
vn 0.0614 0.0382 0.9974
vn -0.1414 -0.0881 0.9860
vn 0.0612 -0.0888 0.9942
vn -0.0056 0.0081 1.0000
vn 0.0131 0.0081 0.9999
vn -0.8488 -0.5286 0.0001
vn 0.5652 -0.8250 0.0000
vn 0.1384 0.0831 0.9869
vn -0.1385 0.0832 0.9869
vn -0.7483 0.4979 0.4383
vn 0.7483 0.4979 0.4383
vn -0.1384 -0.0831 0.9869
vn -0.7483 -0.4979 0.4383
vn 0.1385 -0.0832 0.9869
vn 0.7483 -0.4979 0.4383
vn 0.0178 0.0147 0.9997
vn -0.0178 0.0147 0.9997
vn -0.0178 -0.0147 0.9997
vn 0.0178 -0.0147 0.9997
vn -0.3943 -0.2811 0.8749
vn 0.3943 -0.2811 0.8749
vn 0.3943 0.2811 0.8749
vn -0.3943 0.2811 0.8749
vn -0.6533 -0.4090 0.6371
vn 0.6533 -0.4090 0.6371
vn 0.6533 0.4090 0.6371
vn -0.6533 0.4090 0.6371
vn 0.0078 0.0036 1.0000
vn 0.1036 0.0649 0.9925
vn 0.1031 -0.0645 0.9926
vn 0.0078 -0.0038 1.0000
vn -0.0079 0.0037 1.0000
vn -0.1028 0.0645 0.9926
vn -0.0079 -0.0038 1.0000
vn -0.1022 -0.0640 0.9927
vn -0.1449 0.1070 0.9836
vn 0.1449 0.1070 0.9836
vn -0.1449 -0.1070 0.9836
vn 0.1449 -0.1070 0.9836
vn 0.0000 0.9997 0.0235
vn -0.0000 -0.9997 0.0235
vn 0.9997 0.0000 0.0235
vn -0.9997 0.0000 0.0235
vn -0.1146 -0.0816 0.9901
vn 0.1151 -0.0821 0.9900
vn 0.1154 0.0822 0.9899
vn -0.1149 0.0818 0.9900
vn -0.9251 0.0000 0.3796
vn -0.3933 0.0000 0.9194
vn 0.0000 -0.3933 0.9194
vn 0.0000 -0.9251 0.3796
vn 0.0000 -0.9252 0.3796
vn 0.0000 0.9251 0.3796
vn 0.0000 0.3933 0.9194
vn 0.0000 0.3932 0.9195
vn 0.3933 0.0000 0.9194
vn 0.3932 0.0000 0.9195
vn 0.9251 0.0000 0.3796
usemtl phong17.001
s off
f 1/1/1 3/2/1 2/3/1
f 1/1/1 4/4/1 3/2/1
f 93/5/2 94/6/2 95/7/2
f 93/5/2 95/7/2 96/8/2
f 3/2/3 4/4/3 96/9/3 95/10/3
f 2/3/4 3/2/4 95/10/4 94/11/4
f 4/4/5 1/1/5 93/12/5 96/9/5
f 1/1/6 2/3/6 94/11/6 93/12/6
s 1
f 5/13/1 6/14/1 7/15/7
f 5/13/1 7/15/7 8/16/8
f 6/14/1 9/17/1 10/18/9
f 6/14/1 10/18/9 7/15/7
f 9/17/1 11/19/1 12/20/10
f 9/17/1 12/20/10 10/18/9
f 11/19/1 5/13/1 8/16/8
f 11/19/1 8/16/8 12/20/10
f 8/16/8 7/15/7 13/21/11
f 8/16/8 13/21/11 14/22/12
f 7/15/7 10/18/9 15/23/13
f 7/15/7 15/23/13 13/21/11
f 10/18/9 12/20/10 16/24/14
f 10/18/9 16/24/14 15/23/13
f 12/20/10 8/16/8 14/22/12
f 12/20/10 14/22/12 16/24/14
f 17/25/15 18/26/16 19/27/17
f 17/25/15 19/27/17 20/28/18
f 18/26/16 21/29/19 22/30/20
f 18/26/16 22/30/20 19/27/17
f 21/29/19 23/31/21 24/32/22
f 21/29/19 24/32/22 22/30/20
f 23/31/21 17/25/15 20/28/18
f 23/31/21 20/28/18 24/32/22
f 25/33/23 26/34/24 18/26/16
f 25/33/23 18/26/16 17/25/15
f 26/34/24 27/35/25 21/29/19
f 26/34/24 21/29/19 18/26/16
f 27/35/25 28/36/26 23/31/21
f 27/35/25 23/31/21 21/29/19
f 28/36/26 25/33/23 17/25/15
f 28/36/26 17/25/15 23/31/21
f 29/37/27 30/38/28 26/34/24
f 29/37/27 26/34/24 25/33/23
f 30/38/28 31/39/29 27/35/25
f 30/38/28 27/35/25 26/34/24
f 31/39/29 32/40/30 28/36/26
f 31/39/29 28/36/26 27/35/25
f 32/40/30 29/37/27 25/33/23
f 32/40/30 25/33/23 28/36/26
f 33/41/31 34/42/32 30/38/28
f 33/41/31 30/38/28 29/37/27
f 34/42/32 35/43/33 31/39/29
f 34/42/32 31/39/29 30/38/28
f 35/43/33 36/44/34 32/40/30
f 35/43/33 32/40/30 31/39/29
f 36/44/34 33/41/31 29/37/27
f 36/44/34 29/37/27 32/40/30
f 37/45/35 38/46/36 39/47/37
f 37/45/35 39/47/37 40/48/38
f 38/46/36 37/45/35 41/49/39
f 38/46/36 41/49/39 42/50/40
f 42/50/40 41/49/39 43/51/41
f 42/50/40 43/51/41 44/52/42
f 44/52/42 43/51/41 40/48/38
f 44/52/42 40/48/38 39/47/37
f 38/46/36 42/50/40 45/53/43
f 38/46/36 45/53/43 46/54/44
f 42/50/40 44/52/42 47/55/45
f 42/50/40 47/55/45 45/53/43
f 44/52/42 39/47/37 48/56/46
f 44/52/42 48/56/46 47/55/45
f 39/47/37 38/46/36 46/54/44
f 39/47/37 46/54/44 48/56/46
f 49/57/47 50/58/47 51/59/6
f 49/57/47 51/59/6 52/60/6
f 53/61/3 54/62/3 55/63/48
f 53/61/3 55/63/48 56/64/48
f 57/65/49 58/66/4 59/67/4
f 57/65/49 59/67/4 60/68/49
f 61/69/5 62/70/50 63/71/50
f 61/69/5 63/71/50 64/72/5
f 65/73/51 66/74/52 41/49/39
f 65/73/51 41/49/39 37/45/35
f 66/74/52 67/75/53 43/51/41
f 66/74/52 43/51/41 41/49/39
f 67/75/53 68/76/54 40/48/38
f 67/75/53 40/48/38 43/51/41
f 68/76/54 65/73/51 37/45/35
f 68/76/54 37/45/35 40/48/38
f 69/77/50 70/78/55 71/79/55
f 69/77/50 71/79/55 72/80/50
f 73/81/56 65/73/51 68/76/54
f 73/81/56 68/76/54 74/82/56
f 65/73/51 75/83/57 76/84/57
f 65/73/51 76/84/57 66/74/52
f 77/85/58 78/86/48 79/87/48
f 77/85/58 79/87/48 80/88/59
f 81/89/47 82/90/60 83/91/60
f 81/89/47 83/91/60 84/92/47
f 85/93/61 68/76/54 67/75/53
f 85/93/61 67/75/53 86/94/62
f 66/74/52 87/95/63 88/96/64
f 66/74/52 88/96/64 67/75/53
f 89/97/65 90/98/49 91/99/49
f 89/97/65 91/99/49 92/100/65
