# Blender 3.6.22
# www.blender.org
mtllib untitled.mtl
o Cube
v 0.730308 0.962753 -0.076678
v 0.714150 0.742133 -0.031106
v 0.730308 0.962753 0.133621
v 0.714150 0.742133 0.179193
v -0.905920 0.750643 -0.084395
v -0.920161 -0.742933 -0.083908
v -0.905920 0.750643 0.125904
v -0.920161 -0.742933 0.126391
v -0.129436 0.488159 -0.077621
v -0.004432 0.953469 0.164712
v -0.129436 0.488159 0.202779
v -0.004432 0.953469 -0.115687
v -0.668213 -0.550081 -0.110138
v -0.599433 0.859084 0.161756
v -0.668213 -0.550081 0.170261
v -0.599433 0.859084 -0.118643
v 0.824065 0.851011 -0.088430
v -0.942027 0.002570 0.161100
v 0.824065 0.851011 0.191969
v -0.942027 0.002570 -0.119299
v -0.066934 0.720814 -0.166754
v -0.066934 0.720814 0.253845
v -0.633823 0.154501 -0.184490
v -0.633823 0.154501 0.236108
v -0.938320 -0.798966 0.021147
v -0.828680 -0.772150 -0.111449
v 0.806749 0.781728 -0.068055
v -0.933890 0.469724 0.155004
v 0.806749 0.781729 0.200336
v -0.940233 -0.464143 -0.113170
v -0.796888 0.823316 0.155086
v 0.792099 0.970581 0.026889
v 0.358958 0.707408 0.206570
v -0.925872 0.804986 0.020721
v 0.429004 0.971028 -0.108290
v 0.786254 0.732422 0.076299
v 0.358958 0.707408 -0.061822
v 0.429004 0.971028 0.160101
v -0.462462 -0.027225 0.185950
v -0.347569 0.906616 -0.117217
v -0.102873 0.587037 -0.147047
v -0.138812 0.453261 0.065434
v -0.102873 0.587037 0.256027
v 0.004943 0.988367 0.021657
v -0.462462 -0.027225 -0.094449
v -0.347569 0.906616 0.163182
v -0.828680 -0.772150 0.156943
v -0.796888 0.823316 -0.113305
v -0.673371 -0.655768 0.030700
v -0.653597 -0.250633 -0.173283
v -0.653597 -0.250633 0.229791
v -0.594274 0.964771 0.020918
v 0.806493 0.920785 -0.096973
v -0.940233 -0.464143 0.155221
v 0.806493 0.920785 0.171419
v -0.933890 0.469724 -0.113387
v -0.030995 0.854591 -0.168935
v -0.030995 0.854591 0.234139
v -0.614049 0.559636 -0.178173
v -0.614048 0.559636 0.224901
v -0.405015 0.439695 0.244666
v -0.816541 0.025416 -0.179731
v 0.407182 0.839032 0.250743
v -0.405015 0.439695 -0.175933
v 0.407182 0.839032 -0.152331
v 0.976819 0.848864 0.052537
v -0.985507 0.000643 0.020754
v -0.816541 0.025416 0.223343
v -0.796592 0.940113 0.020752
v -0.806567 0.489709 0.214378
v -0.977478 0.474111 0.020732
v 0.361077 0.687874 0.075838
v 0.945453 0.920475 0.037454
v 0.423441 0.915758 -0.157465
v -0.371984 0.708175 -0.173716
v -0.471079 -0.097264 0.047458
v 0.423441 0.915758 0.228733
v 0.440086 0.990375 0.022508
v -0.832733 -0.889113 0.022873
v -0.806567 0.489709 -0.171820
v -0.371984 0.708175 0.229358
v -0.338952 0.976654 0.021275
v -0.438047 0.171216 0.242449
v -0.824637 -0.438793 -0.170760
v 0.384322 0.762398 0.255844
v -0.438047 0.171216 -0.160625
v 0.384322 0.762398 -0.130354
v 0.961038 0.777915 0.067383
v -0.980116 -0.472231 0.020822
v -0.824637 -0.438793 0.215438
vn -0.1246 0.7710 -0.6245
vn -0.6040 0.6238 -0.4960
vn -0.6046 0.6238 0.4953
vn -0.1274 0.7725 0.6221
vn -0.0755 0.0257 0.9968
vn -0.0952 0.1925 0.9767
vn -0.3992 0.1545 0.9038
vn -0.4366 0.0230 0.8994
vn -0.9530 0.0183 0.3023
vn -0.9486 0.1370 0.2853
vn -0.9485 0.1369 -0.2855
vn -0.9529 0.0183 -0.3028
vn 0.4153 -0.8950 -0.1628
vn 0.1058 -0.9831 -0.1494
vn 0.1052 -0.9821 0.1563
vn 0.4092 -0.8963 0.1709
vn 0.6824 0.1156 -0.7218
vn 0.3416 0.8851 -0.3161
vn 0.3051 0.9093 0.2829
vn 0.6320 0.3879 0.6709
vn 0.0363 -0.0437 -0.9984
vn -0.0318 0.5577 -0.8294
vn 0.1067 0.6281 -0.7707
vn 0.1549 -0.0905 -0.9838
vn 0.0172 0.0113 -0.9998
vn -0.0806 0.2322 -0.9693
vn -0.0928 0.3588 -0.9288
vn 0.0230 -0.0039 -0.9997
vn 0.9239 -0.3436 -0.1685
vn 0.8421 -0.5211 -0.1387
vn 0.8371 -0.5272 0.1460
vn 0.9191 -0.3521 0.1770
vn 0.1322 0.2776 0.9516
vn 0.0822 0.7623 0.6419
vn -0.0513 0.6722 0.7386
vn -0.0299 0.2014 0.9790
vn 0.0497 0.9902 -0.1303
vn -0.0202 0.9802 -0.1968
vn -0.0213 0.9819 0.1882
vn 0.0468 0.9912 0.1242
vn -0.4864 -0.6861 -0.5410
vn 0.7548 -0.5221 -0.3972
vn 0.7367 -0.5365 0.4117
vn -0.4995 -0.6794 0.5375
vn -0.4284 0.0217 -0.9033
vn -0.3948 0.1532 -0.9059
vn -0.0797 0.1857 -0.9794
vn -0.0390 0.0177 -0.9991
vn -0.0838 0.1007 0.9914
vn -0.1297 0.4298 0.8936
vn -0.1139 0.2581 0.9594
vn -0.0686 0.0446 0.9966
vn -0.0786 0.9335 -0.3500
vn -0.0970 0.8435 -0.5283
vn -0.1011 0.8472 0.5216
vn -0.0808 0.9370 0.3399
vn 0.4863 -0.3747 0.7893
vn -0.0409 0.0069 0.9991
vn -0.0315 -0.0102 0.9995
vn 0.4700 -0.2351 0.8508
vn -0.3786 -0.1422 -0.9146
vn -0.4378 -0.0116 -0.8990
vn 0.0002 -0.0232 -0.9997
vn 0.2333 -0.1914 -0.9534
vn 0.1241 -0.6874 0.7156
vn 0.1327 0.0548 0.9896
vn -0.0078 0.0368 0.9993
vn 0.2369 -0.5928 0.7697
vn 0.6002 -0.2448 -0.7614
vn 0.1250 -0.0488 -0.9910
vn 0.1480 -0.1109 -0.9827
vn 0.6072 -0.4135 -0.6785
vn 0.3013 -0.6909 -0.6572
vn 0.0985 -0.2198 -0.9706
vn 0.1526 -0.3140 -0.9371
vn 0.1254 -0.8042 -0.5809
vn 0.2468 -0.9272 -0.2817
vn 0.6291 -0.3257 -0.7058
vn 0.6629 -0.0326 0.7480
vn 0.2746 -0.9083 0.3157
vn -0.9588 -0.1103 0.2617
vn -0.9568 -0.0091 0.2906
vn -0.9566 -0.0092 -0.2913
vn -0.9586 -0.1108 -0.2625
vn 0.1485 -0.1855 0.9713
vn -0.0637 -0.0143 0.9979
vn -0.4512 -0.0102 0.8923
vn -0.3997 -0.1397 0.9059
vt 0.827248 0.500000
vt 0.851124 0.500000
vt 0.850859 0.625000
vt 0.824599 0.625000
vt 0.875000 0.500000
vt 0.875000 0.625000
vt 0.875000 0.750000
vt 0.851124 0.750000
vt 0.827248 0.750000
vt 0.500000 0.949069
vt 0.562500 0.949334
vt 0.562500 0.975793
vt 0.500000 0.975727
vt 0.625000 0.952248
vt 0.625000 0.976124
vt 0.625000 1.000000
vt 0.562500 1.000000
vt 0.500000 1.000000
vt 0.500000 0.000000
vt 0.562500 0.000000
vt 0.562500 0.121489
vt 0.500000 0.120787
vt 0.625000 0.000000
vt 0.625000 0.125000
vt 0.625000 0.250000
vt 0.562500 0.219101
vt 0.500000 0.216292
vt 0.239575 0.500000
vt 0.307287 0.500000
vt 0.308095 0.625000
vt 0.249103 0.625000
vt 0.375000 0.500000
vt 0.373552 0.625000
vt 0.375000 0.750000
vt 0.307287 0.750000
vt 0.239575 0.750000
vt 0.500000 0.519096
vt 0.562536 0.517505
vt 0.562645 0.625000
vt 0.500000 0.625000
vt 0.625000 0.500000
vt 0.626448 0.625000
vt 0.625000 0.750000
vt 0.562536 0.732496
vt 0.500000 0.730904
vt 0.500000 0.376009
vt 0.562500 0.375056
vt 0.562500 0.435468
vt 0.500000 0.436104
vt 0.625000 0.364575
vt 0.625000 0.432287
vt 0.500000 0.300931
vt 0.562500 0.300666
vt 0.562500 0.332686
vt 0.500000 0.332990
vt 0.625000 0.297752
vt 0.625000 0.331164
vt 0.172752 0.500000
vt 0.206164 0.500000
vt 0.207381 0.625000
vt 0.175401 0.625000
vt 0.206164 0.750000
vt 0.172752 0.750000
vt 0.562500 0.814533
vt 0.500000 0.813897
vt 0.625000 0.817713
vt 0.625000 0.885425
vt 0.562500 0.874944
vt 0.500000 0.873992
vt 0.692713 0.500000
vt 0.691905 0.625000
vt 0.760425 0.500000
vt 0.750897 0.625000
vt 0.760425 0.750000
vt 0.692713 0.750000
vt 0.125000 0.500000
vt 0.148876 0.500000
vt 0.149141 0.625000
vt 0.125000 0.625000
vt 0.148876 0.750000
vt 0.125000 0.750000
vt 0.562500 0.270696
vt 0.500000 0.270060
vt 0.625000 0.273876
vt 0.562500 0.917315
vt 0.500000 0.917010
vt 0.625000 0.918837
vt 0.793837 0.500000
vt 0.792619 0.625000
vt 0.793837 0.750000
vt 0.375000 0.885425
vt 0.437500 0.874944
vt 0.437500 0.917315
vt 0.375000 0.918837
vt 0.437500 0.949334
vt 0.375000 0.952248
vt 0.375000 0.250000
vt 0.437500 0.219101
vt 0.437500 0.270696
vt 0.375000 0.273876
vt 0.437500 0.300666
vt 0.375000 0.297752
vt 0.437464 0.732496
vt 0.437500 0.814533
vt 0.375000 0.817713
vt 0.437500 0.332686
vt 0.375000 0.331164
vt 0.437500 0.375056
vt 0.375000 0.364575
vt 0.437500 0.435468
vt 0.375000 0.432287
vt 0.437464 0.517505
vt 0.437355 0.625000
vt 0.375000 0.000000
vt 0.437500 0.000000
vt 0.437500 0.121489
vt 0.375000 0.125000
vt 0.437500 0.975793
vt 0.375000 0.976124
vt 0.437500 1.000000
vt 0.375000 1.000000
s 0
usemtl Material
f 16/1/1 48/2/1 69/3/1 52/4/1
f 48/2/2 5/5/2 34/6/2 69/3/2
f 69/3/3 34/6/3 7/7/3 31/8/3
f 52/4/4 69/3/4 31/8/4 14/9/4
f 24/10/5 60/11/5 70/12/5 68/13/5
f 60/11/6 14/14/6 31/15/6 70/12/6
f 70/12/7 31/15/7 7/16/7 28/17/7
f 68/13/8 70/12/8 28/17/8 18/18/8
f 18/19/9 28/20/9 71/21/9 67/22/9
f 28/20/10 7/23/10 34/24/10 71/21/10
f 71/21/11 34/24/11 5/25/11 56/26/11
f 67/22/12 71/21/12 56/26/12 20/27/12
f 9/28/13 37/29/13 72/30/13 42/31/13
f 37/29/14 2/32/14 36/33/14 72/30/14
f 72/30/15 36/33/15 4/34/15 33/35/15
f 42/31/16 72/30/16 33/35/16 11/36/16
f 17/37/17 53/38/17 73/39/17 66/40/17
f 53/38/18 1/41/18 32/42/18 73/39/18
f 73/39/19 32/42/19 3/43/19 55/44/19
f 66/40/20 73/39/20 55/44/20 19/45/20
f 21/46/21 57/47/21 74/48/21 65/49/21
f 57/47/22 12/50/22 35/51/22 74/48/22
f 74/48/23 35/51/23 1/41/23 53/38/23
f 65/49/24 74/48/24 53/38/24 17/37/24
f 23/52/25 59/53/25 75/54/25 64/55/25
f 59/53/26 16/56/26 40/57/26 75/54/26
f 75/54/27 40/57/27 12/50/27 57/47/27
f 64/55/28 75/54/28 57/47/28 21/46/28
f 13/58/29 45/59/29 76/60/29 49/61/29
f 45/59/30 9/28/30 42/31/30 76/60/30
f 76/60/31 42/31/31 11/36/31 39/62/31
f 49/61/32 76/60/32 39/62/32 15/63/32
f 19/45/33 55/44/33 77/64/33 63/65/33
f 55/44/34 3/43/34 38/66/34 77/64/34
f 77/64/35 38/66/35 10/67/35 58/68/35
f 63/65/36 77/64/36 58/68/36 22/69/36
f 1/41/37 35/70/37 78/71/37 32/42/37
f 35/70/38 12/72/38 44/73/38 78/71/38
f 78/71/39 44/73/39 10/74/39 38/75/39
f 32/42/40 78/71/40 38/75/40 3/43/40
f 6/76/41 26/77/41 79/78/41 25/79/41
f 26/77/42 13/58/42 49/61/42 79/78/42
f 79/78/43 49/61/43 15/63/43 47/80/43
f 25/79/44 79/78/44 47/80/44 8/81/44
f 20/27/45 56/26/45 80/82/45 62/83/45
f 56/26/46 5/25/46 48/84/46 80/82/46
f 80/82/47 48/84/47 16/56/47 59/53/47
f 62/83/48 80/82/48 59/53/48 23/52/48
f 22/69/49 58/68/49 81/85/49 61/86/49
f 58/68/50 10/67/50 46/87/50 81/85/50
f 81/85/51 46/87/51 14/14/51 60/11/51
f 61/86/52 81/85/52 60/11/52 24/10/52
f 12/72/53 40/88/53 82/89/53 44/73/53
f 40/88/54 16/1/54 52/4/54 82/89/54
f 82/89/55 52/4/55 14/9/55 46/90/55
f 44/73/56 82/89/56 46/90/56 10/74/56
f 11/91/57 43/92/57 83/93/57 39/94/57
f 43/92/58 22/69/58 61/86/58 83/93/58
f 83/93/59 61/86/59 24/10/59 51/95/59
f 39/94/60 83/93/60 51/95/60 15/96/60
f 6/97/61 30/98/61 84/99/61 26/100/61
f 30/98/62 20/27/62 62/83/62 84/99/62
f 84/99/63 62/83/63 23/52/63 50/101/63
f 26/100/64 84/99/64 50/101/64 13/102/64
f 4/34/65 29/103/65 85/104/65 33/105/65
f 29/103/66 19/45/66 63/65/66 85/104/66
f 85/104/67 63/65/67 22/69/67 43/92/67
f 33/105/68 85/104/68 43/92/68 11/91/68
f 13/102/69 50/101/69 86/106/69 45/107/69
f 50/101/70 23/52/70 64/55/70 86/106/70
f 86/106/71 64/55/71 21/46/71 41/108/71
f 45/107/72 86/106/72 41/108/72 9/109/72
f 9/109/73 41/108/73 87/110/73 37/111/73
f 41/108/74 21/46/74 65/49/74 87/110/74
f 87/110/75 65/49/75 17/37/75 27/112/75
f 37/111/76 87/110/76 27/112/76 2/32/76
f 2/32/77 27/112/77 88/113/77 36/33/77
f 27/112/78 17/37/78 66/40/78 88/113/78
f 88/113/79 66/40/79 19/45/79 29/103/79
f 36/33/80 88/113/80 29/103/80 4/34/80
f 8/114/81 54/115/81 89/116/81 25/117/81
f 54/115/82 18/19/82 67/22/82 89/116/82
f 89/116/83 67/22/83 20/27/83 30/98/83
f 25/117/84 89/116/84 30/98/84 6/97/84
f 15/96/85 51/95/85 90/118/85 47/119/85
f 51/95/86 24/10/86 68/13/86 90/118/86
f 90/118/87 68/13/87 18/18/87 54/120/87
f 47/119/88 90/118/88 54/120/88 8/121/88
o Plane
v 0.032794 0.406391 0.078569
v 0.238267 0.679249 0.074434
v -0.002943 0.413473 0.033525
v 0.211820 0.684935 0.040612
v -0.400106 0.197319 0.083700
v -0.426552 0.203006 0.049878
v 0.069635 0.371746 0.072138
v 0.272546 0.662008 0.068949
v 0.031999 0.376827 0.027300
v 0.245387 0.666944 0.035205
v -0.381690 0.163520 0.079936
v -0.408848 0.168456 0.046192
v 0.008196 0.416616 0.057234
v 0.183049 0.570269 0.077597
v 0.229628 0.706158 0.058695
v 0.149058 0.577274 0.034459
v -0.453402 0.191085 0.068424
v -0.247821 0.278169 0.040052
v -0.213830 0.271165 0.083190
v 0.057547 0.367603 0.048532
v 0.224294 0.544410 0.070827
v 0.271609 0.685703 0.052000
v 0.188891 0.549928 0.027842
v -0.432389 0.148744 0.064004
v -0.221446 0.236776 0.034896
v -0.186043 0.231258 0.077882
v 0.058093 0.387929 0.083780
v 0.266883 0.692616 0.075949
v 0.007649 0.396290 0.021986
v 0.234354 0.699245 0.034747
v -0.426631 0.166600 0.086815
v -0.459160 0.173229 0.045613
v 0.159212 0.580895 0.057346
v -0.239613 0.281087 0.062719
v 0.215132 0.544511 0.048124
v -0.202567 0.225002 0.055545
v 0.211029 0.558378 0.082365
v 0.268695 0.743456 0.056498
v 0.163315 0.567027 0.023106
v -0.523893 0.142295 0.068916
v -0.244947 0.257369 0.029503
v -0.197233 0.248720 0.088762
vn -0.4715 0.4349 0.7672
vn -0.5367 0.2940 0.7909
vn -0.8357 0.4686 0.2862
vn -0.7151 0.6597 0.2310
vn -0.3308 0.6303 0.7024
vn -0.4784 0.8740 0.0853
vn -0.3868 0.9218 0.0264
vn -0.2717 0.6889 0.6721
vn 0.7168 -0.6416 -0.2729
vn 0.4849 -0.4354 -0.7585
vn 0.6000 -0.2291 -0.7665
vn 0.8434 -0.3381 -0.4177
vn 0.4769 -0.8733 -0.0993
vn 0.3194 -0.9467 -0.0407
vn 0.2370 -0.7656 -0.5980
vn 0.3373 -0.6481 -0.6827
vn -0.1122 0.0902 0.9896
vn -0.1191 0.1151 0.9862
vn 0.3871 -0.3403 0.8569
vn 0.4657 -0.1639 0.8696
vn -0.6316 0.7027 -0.3275
vn -0.2730 0.3767 0.8852
vn 0.9823 0.0729 0.1728
vn 0.4502 0.1095 -0.8862
vn -0.3856 0.3598 -0.8496
vn -0.4312 0.3035 -0.8497
vn 0.1433 0.0021 -0.9897
vn 0.1214 -0.1056 -0.9870
vn -0.2710 0.3709 0.8883
vn -0.5366 0.7249 -0.4320
vn -0.0169 -0.6122 -0.7905
vn 0.0718 -0.7941 0.6035
vn -0.2171 0.3898 -0.8950
vn -0.2546 0.4171 -0.8725
vn 0.0695 -0.1793 -0.9813
vn 0.0098 -0.2020 -0.9793
vn -0.0786 0.1781 0.9809
vn -0.0684 0.1733 0.9825
vn 0.1408 -0.3987 0.9062
vn 0.2472 -0.4181 0.8741
vt 0.166667 0.166667
vt 0.489198 0.180941
vt 0.494599 0.500000
vt 0.166667 0.500000
vt 0.750000 0.250000
vt 0.804784 0.500000
vt 0.750000 0.750000
vt 0.489198 0.819059
vt 0.166667 0.833333
vt 0.020833 0.500000
vt 0.020833 0.180941
vt 0.020833 0.819059
vt 0.000000 0.750000
vt 0.000000 0.500000
vt 0.000000 0.250000
vt 0.000000 0.000000
vt 0.000000 0.500000
vt 0.500000 0.500000
vt 0.500000 0.000000
vt 0.000000 1.000000
vt 0.500000 1.000000
vt 1.000000 1.000000
vt 1.000000 0.500000
vt 1.000000 0.000000
vt 0.003472 0.167052
vt 0.003472 0.832948
vt 0.000000 1.000000
vt 0.497299 0.037423
vt 0.832948 0.167052
vt 0.152778 0.024306
vt 1.000000 0.000000
vt 0.804784 0.500000
vt 0.945988 0.500000
vt 0.832948 0.832948
vt 1.000000 1.000000
vt 0.497299 0.962577
vt 0.152778 0.975695
vt 0.000000 0.195216
vt 0.000000 0.804784
vt 0.020833 0.819059
vt 0.017361 0.942516
vt 0.017361 0.057485
s 0
f 91/122/89 104/123/89 123/124/89 103/125/89
f 104/123/90 92/126/90 105/127/90 123/124/90
f 123/124/91 105/127/91 94/128/91 106/129/91
f 103/125/92 123/124/92 106/129/92 93/130/92
f 91/122/93 103/125/93 124/131/93 109/132/93
f 103/125/94 93/130/94 108/133/94 124/131/94
f 124/131/95 108/133/95 96/134/95 107/135/95
f 109/132/96 124/131/96 107/135/96 95/136/96
f 97/137/97 110/138/97 125/139/97 111/140/97
f 110/138/98 99/141/98 113/142/98 125/139/98
f 125/139/99 113/142/99 100/143/99 112/144/99
f 111/140/100 125/139/100 112/144/100 98/145/100
f 97/137/101 116/146/101 126/138/101 110/138/101
f 116/146/102 101/136/102 114/135/102 126/138/102
f 126/138/103 114/135/103 102/134/103 115/147/103
f 110/138/104 126/138/104 115/147/104 99/148/104
f 92/126/105 104/123/105 127/149/105 118/150/105
f 104/123/106 91/122/106 117/151/106 127/149/106
f 127/149/107 117/151/107 97/137/107 111/140/107
f 118/150/108 127/149/108 111/140/108 98/152/108
f 94/128/109 105/153/109 128/154/109 120/155/109
f 105/153/110 92/126/110 118/150/110 128/154/110
f 128/154/111 118/150/111 98/152/111 112/144/111
f 120/155/112 128/154/112 112/144/112 100/156/112
f 93/130/113 106/129/113 129/157/113 119/158/113
f 106/129/114 94/128/114 120/155/114 129/157/114
f 129/157/115 120/155/115 100/156/115 113/142/115
f 119/158/116 129/157/116 113/142/116 99/148/116
f 95/136/117 107/135/117 130/138/117 121/159/117
f 107/135/118 96/134/118 122/160/118 130/138/118
f 130/138/119 122/160/119 102/134/119 114/135/119
f 121/159/120 130/138/120 114/135/120 101/136/120
f 96/134/121 108/161/121 131/162/121 122/160/121
f 108/161/122 93/130/122 119/158/122 131/162/122
f 131/162/123 119/158/123 99/148/123 115/147/123
f 122/160/124 131/162/124 115/147/124 102/134/124
f 91/122/125 109/132/125 132/163/125 117/151/125
f 109/132/126 95/136/126 121/159/126 132/163/126
f 132/163/127 121/159/127 101/136/127 116/146/127
f 117/151/128 132/163/128 116/146/128 97/137/128
